<svg width="80" height="80" viewBox="0 0 80 80" fill="none" xmlns="http://www.w3.org/2000/svg">
<path d="M39.9994 79.9637C62.0711 79.9637 79.9637 62.0711 79.9637 39.9994C79.9637 17.9278 62.0711 0.0351562 39.9994 0.0351562C17.9278 0.0351562 0.0351562 17.9278 0.0351562 39.9994C0.0351562 62.0711 17.9278 79.9637 39.9994 79.9637Z" fill="#006241"/>
<path d="M33.8572 65.5885C33.8572 61.2666 28.8167 58.0117 28.8167 53.941C28.8167 49.8723 33.5167 48.4525 33.5167 43.4921C33.5167 39.2854 30.0179 35.7597 30.0179 31.4205C30.0179 27.8911 31.028 25.5083 32.9206 23.1495C33.0982 22.9284 32.8924 22.7032 32.6388 22.8894C32.5825 22.9308 32.5262 22.9741 32.4695 23.017C29.7988 25.0777 27.969 28.404 27.969 32.1003C27.969 36.8439 31.0172 39.2224 31.0172 43.5162C31.0172 47.81 26.0527 49.7575 26.0527 53.941C26.0527 58.1265 30.9348 61.4592 30.9348 65.3397C30.9348 68.8867 26.2718 73.3695 26.7916 77.7167C27.813 78.0723 28.8497 78.3961 29.9069 78.6694C29.0889 74.0429 33.8572 69.5962 33.8572 65.5885Z" fill="white"/>
<path d="M23.5248 53.9408C23.5248 50.0607 28.5801 47.7428 28.5801 43.579C28.5801 39.4128 26.0702 37.0516 26.0702 32.7991C26.0702 29.0137 27.4011 26.5165 29.6988 23.7656C29.1875 24.0301 28.7626 24.3327 28.3309 24.7115C25.8965 26.854 24.3183 30.2088 24.3183 33.5218C24.3183 38.0448 26.5123 40.0749 26.5123 43.6047C26.5123 47.1344 21.3594 49.9198 21.3594 53.9408C21.3594 57.9617 25.8274 61.3811 25.8274 64.7853C25.8274 67.8359 21.9897 71.8953 21.8522 75.6105C22.5633 75.9721 23.2844 76.3156 24.0197 76.6354C24.086 72.3332 28.2292 68.7095 28.2292 65.0842C28.2292 61.0978 23.5248 57.8233 23.5248 53.9408Z" fill="white"/>
<path d="M22.3888 61.7539C23.8822 66.455 18.3478 69.2312 17.8457 73.2806C18.4016 73.6498 18.968 74.0045 19.5433 74.3464C19.8367 70.9659 23.4641 68.2685 23.4641 64.8659C23.4641 63.6215 22.8789 62.5826 22.3888 61.7539Z" fill="white"/>
<path d="M57.5241 61.7539C57.0365 62.5826 56.4512 63.6215 56.4512 64.8659C56.4512 68.2689 60.0766 70.9668 60.3697 74.3473C60.9457 74.005 61.5125 73.6498 62.0692 73.2802C61.5672 69.2312 56.0311 66.4546 57.5241 61.7539Z" fill="white"/>
<mask id="mask0_168_2199" style="mask-type:alpha" maskUnits="userSpaceOnUse" x="31" y="44" width="18" height="36">
<path d="M31.3828 79.9446H48.5344V44.2773H31.3828V79.9446Z" fill="white"/>
</mask>
<g mask="url(#mask0_168_2199)">
<path d="M48.5344 53.9422C48.5344 50.1853 44.7884 48.9562 44.2983 45.1082C44.2292 44.5845 43.8063 44.1948 43.2255 44.2924C42.4641 44.4308 41.4893 44.9308 39.959 44.9308C38.4283 44.9308 37.4527 44.4308 36.6897 44.2924C36.1109 44.1948 35.688 44.5845 35.6189 45.1082C35.1288 48.9562 31.3828 50.1853 31.3828 53.9422C31.3828 57.9286 36.5989 61.5643 36.5989 65.6459C36.5989 69.4092 31.9299 73.5437 32.8147 79.2962C35.1341 79.7144 37.5186 79.9447 39.959 79.9447C42.3978 79.9447 44.7819 79.7144 47.1005 79.2966C47.9853 73.5441 43.3163 69.4092 43.3163 65.6459C43.3163 61.5643 48.5344 57.9286 48.5344 53.9422Z" fill="white"/>
</g>
<path d="M13.5625 69.9913C14.0071 70.3821 14.4589 70.7642 14.9208 71.1354C15.3565 70.385 16.0226 69.4704 16.7775 68.9588C16.4242 68.5366 16.0817 68.104 15.7541 67.6602C14.8653 68.1979 14.0742 69.2023 13.5625 69.9913Z" fill="white"/>
<path d="M53.863 53.9408C53.863 49.7574 48.8986 47.8099 48.8986 43.5161C48.8986 39.2222 51.9464 36.8438 51.9464 32.1001C51.9464 28.4038 50.117 25.0775 47.4438 23.0173C47.3875 22.9739 47.3333 22.9306 47.275 22.8893C47.0233 22.7035 46.8175 22.9282 46.9952 23.1493C48.8857 25.5081 49.8959 27.891 49.8959 31.4203C49.8959 35.7595 46.3967 39.2852 46.3967 43.4924C46.3967 48.4524 51.097 49.8721 51.097 53.9408C51.097 58.0115 46.0586 61.2664 46.0586 65.5883C46.0586 69.596 50.8269 74.0427 50.0088 78.6692C51.0652 78.396 52.1011 78.0725 53.1222 77.717C53.6443 73.3698 48.979 68.8865 48.979 65.3395C48.979 61.459 53.863 58.1263 53.863 53.9408Z" fill="white"/>
<path d="M58.5567 53.9408C58.5567 49.9198 53.4037 47.1345 53.4037 43.6047C53.4037 40.0749 55.5933 38.0448 55.5933 33.5218C55.5933 30.2088 54.0191 26.854 51.5827 24.7115C51.151 24.3327 50.7285 24.0301 50.2168 23.7656C52.5149 26.5165 53.8459 29.0137 53.8459 32.7991C53.8459 37.0516 51.3355 39.4128 51.3355 43.579C51.3355 47.7428 56.3908 50.0607 56.3908 53.9408C56.3908 57.8233 51.6824 61.0978 51.6824 65.0842C51.6824 68.7099 55.828 72.3336 55.8943 76.6358C56.6296 76.316 57.3515 75.9721 58.0634 75.6101C57.9259 71.895 54.0887 67.8359 54.0887 64.7853C54.0887 61.3811 58.5567 57.9617 58.5567 53.9408Z" fill="white"/>
<path d="M11.0863 41.9995C6.45794 41.7985 4.83677 45.8154 0.326172 45.0762C0.451991 46.075 0.603537 47.0654 0.802114 48.0397C5.04901 48.5654 6.59019 44.9987 10.4122 45.0012C10.5834 43.9819 10.8089 42.9799 11.0863 41.9995Z" fill="white"/>
<path d="M13.2588 63.6172C11.7277 64.0189 10.6821 65.4623 9.9043 66.3267C10.3288 66.8099 10.7641 67.2826 11.2107 67.7445C11.9106 66.8725 12.811 65.547 14.1283 65.1907C13.8224 64.6754 13.5322 64.1517 13.2588 63.6172Z" fill="white"/>
<path d="M12.075 39.0428C12.526 37.9 13.0506 36.7944 13.6403 35.7318C7.64359 34.6808 5.60436 39.6801 0.0285404 38.9204C0.018089 39.2985 0 39.6749 0 40.0557C0 40.7893 0.0229127 41.5176 0.0619045 42.2415C5.31816 42.829 7.28865 38.5147 12.075 39.0428Z" fill="white"/>
<path d="M9.98978 50.0284C9.98978 49.4658 10.0071 48.9072 10.0376 48.3534C6.15208 48.2627 4.96665 51.5906 1.61133 51.2668C1.86578 52.1355 2.14033 52.9959 2.45146 53.8394C5.61102 53.9835 6.68873 50.922 10.0051 50.961C9.9942 50.6516 9.98978 50.3422 9.98978 50.0284Z" fill="white"/>
<mask id="mask1_168_2199" style="mask-type:alpha" maskUnits="userSpaceOnUse" x="66" y="35" width="14" height="8">
<path d="M79.9156 42.2967V35.5859H66.2734V42.2967H79.9156Z" fill="white"/>
</mask>
<g mask="url(#mask1_168_2199)">
<path d="M79.8869 38.9205C74.3094 39.6801 72.2698 34.6808 66.2734 35.7318C66.8631 36.7944 67.3897 37.9004 67.8408 39.0428C72.6267 38.5151 74.5956 42.8294 79.8535 42.2415C79.8925 41.5176 79.9158 40.7897 79.9158 40.0557C79.9158 39.6749 79.8973 39.2985 79.8869 38.9205Z" fill="white"/>
</g>
<path d="M12.6678 62.4032C12.8953 62.9008 13.2358 63.0914 13.8665 63.0914C15.8177 63.0914 18.8397 61.8297 21.1591 59.5163C19.6485 56.7718 19.191 55.3762 19.191 53.9435C19.191 50.3098 24.3589 47.256 24.3589 43.7307C24.3589 40.2033 22.5773 38.186 22.5773 34.3641C22.5773 30.921 24.1358 27.9475 26.167 25.4414C25.6641 25.7552 25.2263 26.108 24.797 26.5409C22.5857 28.7741 21.1225 32.0398 21.1225 35.0523C21.1225 39.1102 22.6464 40.7768 22.6464 43.7848C22.6464 46.557 16.7651 50.4094 17.4304 54.1943C15.3775 56.062 12.9258 56.8954 10.7841 56.8954C10.9702 57.6832 11.1873 58.4557 11.4345 59.2177C9.02142 59.3449 7.91599 61.3967 6.64453 62.0785C7.0453 62.6809 7.45773 63.2748 7.88986 63.8538C9.05278 63.091 10.0135 61.1869 12.1126 61.1046C12.2883 61.5416 12.4728 61.9746 12.6678 62.4032Z" fill="white"/>
<path d="M10.673 56.3945C10.5146 55.6674 10.3823 54.9294 10.2782 54.185C6.82762 53.9535 6.04095 56.8548 3.77539 56.9848C4.1227 57.7232 4.4873 58.4515 4.87802 59.1642C7.02459 58.9423 7.67138 56.1847 10.673 56.3945Z" fill="white"/>
<path d="M32.8899 29.7052C33.6661 28.9283 35.307 28.9608 37.0089 29.5884C37.0825 28.7421 35.567 27.8203 34.052 27.8203C32.9506 27.8203 32.4043 28.1903 32.4043 28.7268C32.4043 29.0731 32.5213 29.3741 32.8899 29.7052Z" fill="white"/>
<path d="M45.862 27.8203C44.9733 27.8203 43.9305 28.0932 43.2737 28.8223C43.2042 29.0194 43.2042 29.3135 43.3018 29.5126C44.9146 28.9608 46.3388 28.9391 47.0242 29.7052C47.3904 29.3741 47.5073 29.0735 47.5073 28.7272C47.5073 28.1903 46.9635 27.8203 45.862 27.8203Z" fill="white"/>
<path d="M41.9435 34.9997C41.9347 35.1165 41.8912 35.2204 41.8068 35.3135C41.0985 35.4219 40.7778 35.8156 39.9581 35.8156C39.1365 35.8156 38.8181 35.4219 38.107 35.3135C38.0246 35.2204 37.9812 35.1165 37.9724 34.9997C38.1046 34.7682 38.718 34.5194 39.0348 34.5174C39.3644 34.515 39.4725 34.6988 39.9581 34.6988C40.4437 34.6988 40.5523 34.515 40.8819 34.5174C41.1982 34.5194 41.8112 34.7682 41.9435 34.9997ZM42.8584 37.1638C42.8584 37.1638 43.0662 37.2397 43.1229 37.4259C42.2859 38.0708 41.7051 39.5335 39.9581 39.5335C38.2087 39.5335 37.6298 38.0708 36.7909 37.4259C36.8472 37.2397 37.0574 37.1638 37.0574 37.1638C37.0574 37.1638 38.1544 37.4215 39.9581 37.4215C41.7614 37.4215 42.8584 37.1638 42.8584 37.1638ZM47.5885 26.7022C46.7737 23.9971 43.6668 21.9023 39.9581 21.9023C36.2491 21.9023 33.1426 23.9971 32.3274 26.7022C32.2647 26.9101 32.3491 27.0441 32.5895 26.9361C33.2575 26.6372 34.0161 26.4923 34.8421 26.4923C36.3552 26.4923 37.6886 27.0485 38.4756 28.0116C38.8266 29.1609 38.8547 30.8251 38.4604 31.7729C37.8381 31.6345 37.6126 31.1517 37.0056 31.1517C36.3966 31.1517 35.9259 31.5803 34.894 31.5803C33.8621 31.5803 33.7407 31.0935 33.0646 31.0935C32.2667 31.0935 32.1191 31.9138 32.1191 32.8399C32.1191 36.9648 35.9174 42.6435 39.9581 42.6435C43.9988 42.6435 47.7967 36.9648 47.7967 32.8399C47.7967 31.9138 47.6062 31.1216 46.7713 31.0133C46.3572 31.3118 45.9758 31.5803 45.0219 31.5803C43.99 31.5803 43.7062 31.1517 43.0968 31.1517C42.364 31.1517 42.4379 32.6971 41.564 32.7838C40.986 31.3901 40.9554 29.6043 41.439 28.0116C42.2273 27.0485 43.5607 26.4923 45.0741 26.4923C45.8978 26.4923 46.6651 26.6372 47.324 26.9361C47.5648 27.0441 47.6492 26.9101 47.5885 26.7022Z" fill="white"/>
<mask id="mask2_168_2199" style="mask-type:alpha" maskUnits="userSpaceOnUse" x="21" y="2" width="38" height="22">
<path d="M58.4506 2.54297H21.4609V23.2891H58.4506V2.54297Z" fill="white"/>
</mask>
<g mask="url(#mask2_168_2199)">
<path d="M35.8143 17.1359C35.953 17.0344 39.9571 13.9914 39.9571 13.9914C39.9571 13.9914 43.9608 17.0344 44.0971 17.1359C44.2531 17.2507 44.1751 17.4453 43.9757 17.4108C43.6244 17.3482 41.9357 17.0645 39.9571 17.0645C37.9778 17.0645 36.2891 17.3482 35.9377 17.4108C35.7384 17.4453 35.6604 17.2507 35.8143 17.1359ZM25.9289 22.9816C26.0588 23.2737 26.3385 23.3688 26.642 23.2195C30.6526 21.2307 35.1748 20.1095 39.9572 20.1095C44.7387 20.1095 49.2589 21.2307 53.2715 23.2195C53.575 23.3688 53.8528 23.2737 53.9826 22.9816C55.1359 20.3996 56.6927 17.9951 58.4506 15.7402C55.5218 15.9477 52.9768 16.9521 50.9215 18.6251C51.7954 16.1512 52.9053 13.9894 54.3078 11.8923C50.5835 12.2859 47.4641 13.6495 45.1897 15.9738L43.4077 11.3144L47.362 7.82798L42.068 7.45558L39.9572 2.54297L37.8456 7.45558L32.5515 7.82798L36.5038 11.3144L34.7238 15.9738C32.4478 13.6495 29.3305 12.2859 25.6037 11.8923C27.0062 13.9894 28.1161 16.1512 28.992 18.6251C26.9347 16.9521 24.3918 15.9477 21.4609 15.7402C23.2168 17.9951 24.7757 20.3996 25.9289 22.9816Z" fill="white"/>
</g>
<path d="M64.8439 33.3644C70.591 31.3756 74.3632 37.0695 78.7942 35.7409C74.4954 31.185 71.0006 25.9999 71.4601 20.0311C71.4906 19.6804 71.1743 19.4814 70.8748 19.6912C68.6852 21.2061 67.1505 23.7146 66.6782 26.5409C63.6344 24.5886 60.0745 24.3117 57.1328 25.5128C60.1613 27.6336 62.7802 30.2957 64.8439 33.3644Z" fill="white"/>
<path d="M15.0674 33.3644C17.1335 30.2957 19.752 27.6336 22.7805 25.5128C19.8408 24.3117 16.2793 24.5886 13.2355 26.5409C12.7652 23.7146 11.2301 21.2061 9.04091 19.6912C8.73943 19.4814 8.42508 19.6804 8.45121 20.0311C8.91509 25.9999 5.41829 31.185 1.11914 35.7409C5.55054 37.0695 9.3227 31.3756 15.0674 33.3644Z" fill="white"/>
<path d="M69.1333 56.8955C66.9892 56.8955 64.5395 56.0624 62.4866 54.1948C63.1499 50.4094 57.2665 46.557 57.2665 43.7849C57.2665 40.7768 58.7924 39.1102 58.7924 35.0523C58.7924 32.0398 57.3272 28.7741 55.1203 26.5409C54.691 26.108 54.2529 25.7552 53.75 25.4414C55.7792 27.9475 57.3401 30.921 57.3401 34.3641C57.3401 38.186 55.5581 40.2033 55.5581 43.7307C55.5581 47.2564 60.7239 50.3099 60.7239 53.9436C60.7239 55.3762 60.2665 56.7723 58.7578 59.5163C61.0777 61.8298 64.0993 63.0914 66.0485 63.0914C66.6816 63.0914 67.0217 62.9008 67.2472 62.4032C67.4422 61.9746 67.6267 61.542 67.8024 61.1046C69.9007 61.1869 70.8634 63.0934 72.0251 63.8555C72.5529 63.2138 72.7612 62.9369 73.2713 62.079C71.9978 61.3984 70.894 59.3454 68.4829 59.2177C68.7301 58.4557 68.9468 57.6832 69.1333 56.8955Z" fill="white"/>
<path d="M64.1602 67.6602C63.8329 68.104 63.4905 68.5366 63.1367 68.9587C63.8945 69.4708 64.5609 70.3857 64.9943 71.1357C65.4557 70.7649 65.908 70.3829 66.3526 69.9921C65.8429 69.2027 65.0493 68.1979 64.1602 67.6602Z" fill="white"/>
<path d="M66.6566 63.6172C66.3833 64.1517 66.0911 64.6754 65.7852 65.1906C67.1028 65.547 68.0057 66.8733 68.7031 67.7453C69.1505 67.283 69.5862 66.8099 70.0107 66.3263C69.2309 65.4619 68.1854 64.0189 66.6566 63.6172Z" fill="white"/>
<path d="M68.8301 41.9995C69.1054 42.9799 69.3285 43.9819 69.5022 45.0012C73.3262 44.9987 74.8654 48.5654 79.1143 48.0397C79.3125 47.0654 79.4644 46.075 79.5902 45.0762C75.0776 45.8154 73.456 41.7985 68.8301 41.9995Z" fill="white"/>
<path d="M69.8789 48.3534C69.9095 48.9076 69.9263 49.4658 69.9263 50.0284C69.9263 50.3422 69.9179 50.6516 69.9095 50.9614C73.2254 50.9225 74.3051 53.9811 77.4642 53.8394C77.7754 52.9963 78.0503 52.1356 78.3048 51.2668C74.9503 51.5922 73.7652 48.2627 69.8789 48.3534Z" fill="white"/>
<path d="M69.635 54.185C69.5309 54.9294 69.401 55.6674 69.2402 56.3945C72.245 56.1847 72.889 58.9435 75.0372 59.1647C75.4275 58.452 75.7921 57.7232 76.1394 56.9848C73.8702 56.8564 73.0888 53.9535 69.635 54.185Z" fill="white"/>
</svg>
